<svg width="26" height="26" viewBox="0 0 26 26" fill="none" xmlns="http://www.w3.org/2000/svg">
<path fill-rule="evenodd" clip-rule="evenodd" d="M12.9729 2.16235C10.0367 2.16235 9.66914 2.17533 8.51562 2.22722C7.36535 2.28019 6.57941 2.46289 5.89184 2.72992C5.1702 3.0011 4.51644 3.4265 3.97616 3.97641C3.42628 4.5167 3.00089 5.17046 2.72968 5.89208C2.46265 6.57965 2.27995 7.3656 2.22697 8.51587C2.174 9.66938 2.16211 10.0369 2.16211 12.9732C2.16211 15.9094 2.174 16.2769 2.22697 17.4305C2.27995 18.5807 2.46265 19.3667 2.72968 20.0542C3.00092 20.7758 3.42631 21.4296 3.97616 21.9699C4.51648 22.5198 5.17023 22.9452 5.89184 23.2164C6.57941 23.4834 7.36535 23.6661 8.51562 23.7191C9.66914 23.771 10.0367 23.784 12.9729 23.784C15.9091 23.784 16.2767 23.771 17.4302 23.7191C18.5805 23.6661 19.3664 23.4834 20.054 23.2164C20.7756 22.9452 21.4294 22.5198 21.9697 21.9699C22.5196 21.4296 22.945 20.7759 23.2162 20.0542C23.4832 19.3667 23.6659 18.5807 23.7189 17.4305C23.7708 16.2769 23.7837 15.9094 23.7837 12.9732C23.7837 10.0369 23.7708 9.66938 23.7189 8.51587C23.6659 7.3656 23.4832 6.57965 23.2162 5.89208C22.945 5.17046 22.5196 4.5167 21.9697 3.97641C21.4294 3.4265 20.7756 3.0011 20.054 2.72992C19.3664 2.46289 18.5805 2.28019 17.4302 2.22722C16.2767 2.17533 15.9091 2.16235 12.9729 2.16235ZM12.9729 4.11046C15.8594 4.11046 16.201 4.12127 17.3405 4.17316C18.3956 4.22181 18.9675 4.39695 19.3491 4.54506C19.8529 4.74181 20.214 4.97641 20.5924 5.35371C20.9708 5.73208 21.2043 6.09316 21.401 6.59695C21.5481 6.97857 21.7254 7.55046 21.7729 8.60452C21.8248 9.74506 21.8356 10.0856 21.8356 12.9732C21.8356 15.8597 21.8248 16.2013 21.7729 17.3407C21.7243 18.3959 21.5481 18.9678 21.401 19.3494C21.2277 19.819 20.9514 20.2438 20.5924 20.5926C20.214 20.971 19.8529 21.2045 19.3491 21.4013C18.9675 21.5483 18.3956 21.7256 17.3416 21.7732C16.2021 21.8251 15.8605 21.8359 12.9729 21.8359C10.0864 21.8359 9.74373 21.8251 8.60535 21.7732C7.55022 21.7245 6.97833 21.5483 6.5967 21.4013C6.12707 21.228 5.70224 20.9517 5.35346 20.5926C4.99439 20.2438 4.71807 19.819 4.54481 19.3494C4.3967 18.9678 4.22049 18.3959 4.17292 17.3418C4.12103 16.2013 4.11022 15.8607 4.11022 12.9732C4.11022 10.0867 4.12103 9.74506 4.17292 8.6056C4.22157 7.55046 4.3967 6.97857 4.54481 6.59695C4.74157 6.09316 4.97616 5.73208 5.35346 5.35371C5.73184 4.97533 6.09292 4.74181 6.5967 4.54506C6.97833 4.39695 7.55022 4.22073 8.60427 4.17316C9.74481 4.12127 10.0854 4.11046 12.9729 4.11046ZM12.9729 16.5764C12.0173 16.5764 11.1008 16.1968 10.425 15.521C9.7493 14.8453 9.36968 13.9288 9.36968 12.9732C9.36968 12.0175 9.7493 11.101 10.425 10.4253C11.1008 9.74955 12.0173 9.36992 12.9729 9.36992C13.9286 9.36992 14.8451 9.74955 15.5208 10.4253C16.1965 11.101 16.5762 12.0175 16.5762 12.9732C16.5762 13.9288 16.1965 14.8453 15.5208 15.521C14.8451 16.1968 13.9286 16.5764 12.9729 16.5764V16.5764ZM12.9729 7.42181C12.2439 7.42181 11.522 7.5654 10.8485 7.84438C10.175 8.12337 9.56301 8.53228 9.04752 9.04777C8.53203 9.56326 8.12312 10.1752 7.84414 10.8488C7.56516 11.5223 7.42157 12.2442 7.42157 12.9732C7.42157 13.7022 7.56516 14.4241 7.84414 15.0976C8.12312 15.7711 8.53203 16.3831 9.04752 16.8986C9.56301 17.4141 10.175 17.823 10.8485 18.1019C11.522 18.3809 12.2439 18.5245 12.9729 18.5245C14.4452 18.5245 15.8572 17.9396 16.8983 16.8986C17.9394 15.8575 18.5243 14.4455 18.5243 12.9732C18.5243 11.5009 17.9394 10.0888 16.8983 9.04777C15.8572 8.00669 14.4452 7.42181 12.9729 7.42181V7.42181ZM20.041 7.20235C20.041 7.37272 20.0075 7.54141 19.9423 7.69881C19.8771 7.8562 19.7815 7.99922 19.6611 8.11968C19.5406 8.24015 19.3976 8.33571 19.2402 8.4009C19.0828 8.4661 18.9141 8.49965 18.7437 8.49965C18.5734 8.49965 18.4047 8.4661 18.2473 8.4009C18.0899 8.33571 17.9469 8.24015 17.8264 8.11968C17.7059 7.99922 17.6104 7.8562 17.5452 7.69881C17.48 7.54141 17.4464 7.37272 17.4464 7.20235C17.4464 6.85829 17.5831 6.52832 17.8264 6.28503C18.0697 6.04174 18.3997 5.90506 18.7437 5.90506C19.0878 5.90506 19.4178 6.04174 19.6611 6.28503C19.9043 6.52832 20.041 6.85829 20.041 7.20235" fill="white"/>
</svg>
