<svg width="28" height="28" viewBox="0 0 28 28" fill="none" xmlns="http://www.w3.org/2000/svg">
<path d="M22.3255 3.87488H5.34596C4.53396 3.87488 3.875 4.51834 3.875 5.31069V22.3636C3.875 23.1571 4.53396 23.8014 5.34596 23.8014H22.3255C23.1381 23.8014 23.8015 23.1571 23.8015 22.3636V5.31069C23.8015 4.51834 23.1381 3.87488 22.3255 3.87488ZM9.78486 20.855H6.82799V11.3459H9.78486V20.855ZM8.30643 10.0457C8.08136 10.0457 7.85851 10.0014 7.65059 9.91521C7.44267 9.82905 7.25377 9.70276 7.09468 9.54357C6.93558 9.38437 6.80942 9.19539 6.72339 8.98742C6.63736 8.77944 6.59316 8.55656 6.5933 8.33149C6.5933 7.87718 6.77378 7.44147 7.09503 7.12023C7.41627 6.79898 7.85198 6.61851 8.30629 6.61851C8.7606 6.61851 9.19631 6.79898 9.51755 7.12023C9.8388 7.44147 10.0193 7.87718 10.0193 8.33149C10.0193 8.78589 9.83886 9.22171 9.51768 9.54315C9.1965 9.86459 8.76083 10.0454 8.30643 10.0457V10.0457ZM20.854 20.855H17.9019V16.231C17.9019 15.1278 17.8803 13.7094 16.3656 13.7094C14.8274 13.7094 14.593 14.9108 14.593 16.151V20.8553H11.6386V11.3459H14.474V12.6445H14.5144C14.909 11.8972 15.8732 11.1087 17.3113 11.1087C20.3019 11.1087 20.8543 13.0776 20.8543 15.639V20.855H20.854Z" fill="white"/>
</svg>
